<svg xmlns="http://www.w3.org/2000/svg" width="32" height="32" viewBox="0 0 32 32">
  <path d="M16 2C9.4 2 4 7 4 13c0 3.2 1.4 6 3.6 8 .4.4.4 1.2.2 2.2-.3 1.2-.6 2.6-.6 3.8 0 1.7 1 3 3 3h11.6c2 0 3-1.3 3-3 0-1.2-.3-2.6-.6-3.8-.2-1 -.2-1.8.2-2.2C26.6 19 28 16.2 28 13c0-6-5.4-11-12-11z" fill="#a78bfa" opacity="0.15"/>
  <path d="M16 4c-5 0-9 3.8-9 8.5 0 2.4 1.1 4.6 2.8 6.2.8.8 1 2 .7 3.3-.2 1-.4 2-.4 2.8 0 .8.3 1.2 1.2 1.2h9.4c.9 0 1.2-.4 1.2-1.2 0-.8-.2-1.8-.4-2.8-.3-1.3-.1-2.5.7-3.3C23.9 17.1 25 14.9 25 12.5 25 7.8 21 4 16 4z" fill="none" stroke="#a78bfa" stroke-width="1.5" stroke-linecap="round" stroke-linejoin="round"/>
  <path d="M16 4v14" fill="none" stroke="#a78bfa" stroke-width="1.2" stroke-linecap="round" opacity="0.6"/>
  <path d="M16 8c-2.5.5-4.5 2.5-4.5 5" fill="none" stroke="#a78bfa" stroke-width="1.2" stroke-linecap="round" opacity="0.6"/>
  <path d="M16 8c2.5.5 4.5 2.5 4.5 5" fill="none" stroke="#a78bfa" stroke-width="1.2" stroke-linecap="round" opacity="0.6"/>
  <path d="M16 12c-2 .5-3.5 2-3.5 4" fill="none" stroke="#a78bfa" stroke-width="1.2" stroke-linecap="round" opacity="0.6"/>
  <path d="M16 12c2 .5 3.5 2 3.5 4" fill="none" stroke="#a78bfa" stroke-width="1.2" stroke-linecap="round" opacity="0.6"/>
  <line x1="12" y1="28" x2="20" y2="28" stroke="#a78bfa" stroke-width="1.2" stroke-linecap="round" opacity="0.4"/>
  <line x1="12.5" y1="26" x2="19.5" y2="26" stroke="#a78bfa" stroke-width="1.2" stroke-linecap="round" opacity="0.4"/>
</svg>
